<svg xmlns="http://www.w3.org/2000/svg" width="1200" height="630" viewBox="0 0 1200 630">
  <defs>
    <linearGradient id="bg" x1="0" y1="0" x2="1200" y2="630" gradientUnits="userSpaceOnUse">
      <stop offset="0" stop-color="#171d19"/>
      <stop offset="1" stop-color="#0d100e"/>
    </linearGradient>
    <linearGradient id="accent" x1="0" y1="0" x2="1" y2="1">
      <stop offset="0" stop-color="#a6b892"/>
      <stop offset="1" stop-color="#728261"/>
    </linearGradient>
  </defs>
  <rect width="1200" height="630" fill="url(#bg)"/>
  <g opacity="0.08" stroke="#ffffff" stroke-width="1">
    <path d="M0 150H1200M0 300H1200M0 450H1200M150 0V630M400 0V630M650 0V630M900 0V630M1150 0V630"/>
  </g>
  <g transform="translate(90,90)">
    <path d="M0 34L34 0L68 34" stroke="#f4f2ec" stroke-width="5" stroke-linecap="round" stroke-linejoin="round" fill="none"/>
    <path d="M9 26V64H59V26" stroke="#f4f2ec" stroke-width="5" stroke-linecap="round" stroke-linejoin="round" fill="none"/>
    <path d="M25 64V44H43V64" stroke="url(#accent)" stroke-width="5" stroke-linecap="round" stroke-linejoin="round" fill="none"/>
  </g>
  <text x="90" y="260" font-family="Manrope, Arial, sans-serif" font-weight="800" font-size="64" fill="#f4f2ec">Future 3D</text>
  <text x="90" y="330" font-family="Manrope, Arial, sans-serif" font-weight="700" font-size="40" fill="#a6b892" letter-spacing="4">CONSTRUCTION</text>
  <text x="90" y="410" font-family="Inter, Arial, sans-serif" font-weight="500" font-size="30" fill="#c7cdc3">Будущее строительства уже сегодня</text>
  <g transform="translate(760,120)" opacity="0.9">
    <rect x="0" y="0" width="340" height="380" rx="18" fill="#171d19" stroke="#2b332e"/>
    <circle cx="170" cy="150" r="90" fill="none" stroke="url(#accent)" stroke-width="3" opacity="0.6"/>
    <circle cx="170" cy="150" r="60" fill="none" stroke="url(#accent)" stroke-width="3" opacity="0.4"/>
    <rect x="120" y="230" width="100" height="90" rx="6" fill="none" stroke="#f4f2ec" stroke-width="3"/>
  </g>
</svg>
